#N canvas 672 23 624 574 10;
#X declare -lib mrpeach;
#X obj -55 20 import mrpeach;
#X obj -67 545 udpsend;
#X msg 1 471 disconnect;
#X obj -65 470 packOSC;
#X floatatom -63 343 5 0 0 0 - - -;
#X msg 74 390 send /rotar_z4 \$1;
#X floatatom 229 339 5 0 0 0 - - -;
#X floatatom 74 346 5 0 0 0 - - -;
#X msg 214 395 send /rotar_z6 \$1;
#X msg -62 385 send /rotar_z2 \$1;
#X floatatom 357 342 5 0 0 0 - - -;
#X msg 352 382 send /x \$1;
#X floatatom 463 341 5 0 0 0 - - -;
#X msg 458 381 send /c \$1;
#X msg -5 504 connect 192.168.1.74 12001;
#X obj 143 67 counter 3;
#X floatatom 143 102 5 0 0 0 - - -;
#X obj 143 135 select 0 1 2 3;
#X obj 135 174 bng 15 250 50 0 empty empty empty 17 7 0 10 -262144
-1 -1;
#X obj 160 174 bng 15 250 50 0 empty empty empty 17 7 0 10 -262144
-1 -1;
#X obj 217 173 bng 15 250 50 0 empty empty empty 17 7 0 10 -262144
-1 -1;
#X obj 189 174 bng 15 250 50 0 empty empty empty 17 7 0 10 -262144
-1 -1;
#X floatatom 113 210 5 0 0 0 - - -;
#X floatatom 154 211 5 0 0 0 - - -;
#X floatatom 243 211 5 0 0 0 - - -;
#X floatatom 199 211 5 0 0 0 - - -;
#X obj 154 255 osc~;
#X obj 154 293 *~ 1;
#X floatatom 192 293 5 0 0 0 - - -;
#X obj 155 326 dac~;
#X obj 143 10 tgl 15 0 empty empty empty 17 7 0 10 -262144 -1 -1 0
1;
#X obj 143 37 metro 500;
#X connect 2 0 1 0;
#X connect 3 0 1 0;
#X connect 4 0 9 0;
#X connect 5 0 3 0;
#X connect 6 0 8 0;
#X connect 7 0 5 0;
#X connect 8 0 3 0;
#X connect 9 0 3 0;
#X connect 10 0 11 0;
#X connect 11 0 3 0;
#X connect 12 0 13 0;
#X connect 13 0 3 0;
#X connect 14 0 1 0;
#X connect 15 0 16 0;
#X connect 16 0 17 0;
#X connect 17 0 18 0;
#X connect 17 1 19 0;
#X connect 17 2 21 0;
#X connect 17 3 20 0;
#X connect 18 0 22 0;
#X connect 19 0 23 0;
#X connect 20 0 24 0;
#X connect 21 0 25 0;
#X connect 22 0 26 0;
#X connect 23 0 26 0;
#X connect 24 0 26 0;
#X connect 25 0 26 0;
#X connect 26 0 27 0;
#X connect 27 0 29 0;
#X connect 27 0 29 1;
#X connect 28 0 27 1;
#X connect 30 0 31 0;
#X connect 31 0 15 0;
